
<svg xmlns="http://www.w3.org/2000/svg" width="512" height="512" viewBox="0 0 24 24" fill="none" stroke="#3b82f6" stroke-width="2" stroke-linecap="round" stroke-linejoin="round">
  <path d="M16 22h4a2 2 0 0 0 2-2v-4"></path>
  <path d="M2 6V2h4"></path>
  <path d="M18 14a4 4 0 0 0 0-8"></path>
  <path d="M18 14c-1.5 1.3-3.5 1.3-5 0-.3-.3-.3-.7 0-1l.5-.5"></path>
  <path d="M7 6a4 4 0 1 0-3 7h7"></path>
  <path d="M8 20a2 2 0 0 1-2-2"></path>
  <path d="M8 14v4"></path>
  <path d="M12 14v4"></path>
  <path d="M16 14v4"></path>
</svg>
